<?xml version="1.0" encoding="UTF-8" standalone="no"?>
<!DOCTYPE svg PUBLIC "-//W3C//DTD SVG 1.1//EN" "http://www.w3.org/Graphics/SVG/1.1/DTD/svg11.dtd">
<svg width="100%" height="100%" viewBox="0 0 512 512" version="1.1" xmlns="http://www.w3.org/2000/svg" xmlns:xlink="http://www.w3.org/1999/xlink" xml:space="preserve" xmlns:serif="http://www.serif.com/" style="fill-rule:evenodd;clip-rule:evenodd;stroke-linecap:round;stroke-linejoin:round;stroke-miterlimit:1.5;">
    <g id="TriangleEnemy" transform="matrix(1,0,0,1,-46.8293,0)">
        <g transform="matrix(-1.83697e-16,1,-1,-1.83697e-16,360.391,91.2995)">
            <path d="M164.7,0L329.401,300.703L0,300.703L164.7,0Z" style="fill:rgb(208,55,145);stroke:rgb(38,13,52);stroke-width:12.5px;"/>
        </g>
        <g transform="matrix(-1.03771e-16,0.564793,-0.565661,-1.0389e-16,256,162.978)">
            <path d="M164.7,146.3L329.401,300.703L164.7,227.345L0,300.703L164.7,146.3Z" style="fill:rgb(135,40,106);stroke:rgb(38,13,52);stroke-width:6.63px;"/>
        </g>
        <g transform="matrix(-7.58102e-17,0.411133,-0.42364,-7.75352e-17,300.634,188.286)">
            <path d="M164.7,146.3L329.401,300.703L164.7,227.345L0,300.703L164.7,146.3Z" style="fill:rgb(135,40,106);stroke:rgb(38,13,52);stroke-width:8.98px;"/>
        </g>
    </g>
</svg>
